<svg width="1em" height="1em" viewBox="0 0 16 16" fill="none" xmlns="http://www.w3.org/2000/svg">
<path fill-rule="evenodd" clip-rule="evenodd" d="M4.66663 2.66683C4.48981 2.66683 4.32025 2.73707 4.19522 2.86209C4.0702 2.98712 3.99996 3.15668 3.99996 3.3335V12.6668C3.99996 12.8436 4.0702 13.0132 4.19522 13.1382C4.32025 13.2633 4.48982 13.3335 4.66663 13.3335H11.3333C11.5101 13.3335 11.6797 13.2633 11.8047 13.1382C11.9297 13.0132 12 12.8436 12 12.6668V6.00016H9.99996C9.64634 6.00016 9.3072 5.85969 9.05715 5.60964C8.8071 5.35959 8.66663 5.02045 8.66663 4.66683V2.66683H4.66663ZM9.99996 3.60964L11.0572 4.66683H9.99996V3.60964ZM3.25241 1.91928C3.62749 1.54421 4.13619 1.3335 4.66663 1.3335H9.33329C9.5101 1.3335 9.67967 1.40373 9.8047 1.52876L13.138 4.86209C13.2631 4.98712 13.3333 5.15668 13.3333 5.3335V12.6668C13.3333 13.1973 13.1226 13.706 12.7475 14.081C12.3724 14.4561 11.8637 14.6668 11.3333 14.6668H4.66663C4.13619 14.6668 3.62748 14.4561 3.25241 14.081C2.87734 13.706 2.66663 13.1973 2.66663 12.6668V3.3335C2.66663 2.80306 2.87734 2.29436 3.25241 1.91928ZM5.33329 8.66683C5.33329 8.29864 5.63177 8.00016 5.99996 8.00016H9.99996C10.3681 8.00016 10.6666 8.29864 10.6666 8.66683C10.6666 9.03502 10.3681 9.3335 9.99996 9.3335H5.99996C5.63177 9.3335 5.33329 9.03502 5.33329 8.66683ZM5.33329 11.3335C5.33329 10.9653 5.63177 10.6668 5.99996 10.6668H9.99996C10.3681 10.6668 10.6666 10.9653 10.6666 11.3335C10.6666 11.7017 10.3681 12.0002 9.99996 12.0002H5.99996C5.63177 12.0002 5.33329 11.7017 5.33329 11.3335Z" fill="currentColor"/>
</svg>
