<svg width="1em" height="1em" viewBox="0 0 16 16" fill="none" xmlns="http://www.w3.org/2000/svg">
<g clip-path="url(#clip0_9774_5544)">
<path fill-rule="evenodd" clip-rule="evenodd" d="M8.95471 4.02255C8.55087 3.94912 8.13447 3.948 7.73011 4.01926C7.32575 4.09052 6.94395 4.23228 6.60622 4.43407C5.92377 4.84182 5.47028 5.46326 5.31704 6.14598C5.24872 6.45034 4.97849 6.66663 4.66656 6.66663C4.00223 6.66663 3.37074 6.91934 2.90963 7.36041C2.44952 7.80051 2.19686 8.39093 2.19686 8.99997C2.19686 9.609 2.44952 10.1994 2.90963 10.6395C3.37074 11.0806 4.00223 11.3333 4.66656 11.3333C5.03475 11.3333 5.33322 11.6318 5.33322 12C5.33322 12.3682 5.03475 12.6666 4.66656 12.6666C3.66726 12.6666 2.70325 12.2872 1.988 11.603C1.27174 10.9179 0.863525 9.98223 0.863525 8.99997C0.863525 8.0177 1.27174 7.082 1.988 6.39689C2.58163 5.82906 3.34662 5.47115 4.16092 5.36584C4.47963 4.50831 5.10317 3.77892 5.92234 3.28948C6.40314 3.00221 6.93889 2.80481 7.4987 2.70616C8.05851 2.60751 8.63403 2.60905 9.19322 2.71072C9.75243 2.81239 10.2869 3.0127 10.7659 3.30262C11.245 3.59259 11.6607 3.96749 11.9862 4.40885C12.3119 4.85042 12.5407 5.34941 12.6557 5.87797C12.7124 6.13861 12.7407 6.40309 12.7406 6.66755C13.5094 6.68652 14.2428 7.00019 14.7879 7.54531C15.3505 8.10792 15.6666 8.87099 15.6666 9.66663C15.6666 10.4623 15.3505 11.2253 14.7879 11.788C14.2253 12.3506 13.4622 12.6666 12.6666 12.6666H11.9999C11.6317 12.6666 11.3332 12.3682 11.3332 12C11.3332 11.6318 11.6317 11.3333 11.9999 11.3333H12.6666C13.1086 11.3333 13.5325 11.1577 13.8451 10.8451C14.1576 10.5326 14.3332 10.1087 14.3332 9.66663C14.3332 9.22461 14.1576 8.80068 13.8451 8.48812C13.5325 8.17556 13.1086 7.99997 12.6666 7.99997H11.9999C11.7974 7.99997 11.6059 7.90796 11.4794 7.7499C11.3529 7.59183 11.3051 7.38484 11.3494 7.18729C11.4254 6.8486 11.4266 6.50044 11.3528 6.16143C11.279 5.82223 11.1309 5.49543 10.9132 5.20033C10.6954 4.90501 10.4117 4.64677 10.0756 4.44329C9.73928 4.23976 9.35853 4.09597 8.95471 4.02255ZM7.52851 7.5286C7.78886 7.26825 8.21097 7.26825 8.47132 7.5286L10.4713 9.5286C10.7317 9.78895 10.7317 10.2111 10.4713 10.4714C10.211 10.7318 9.78886 10.7318 9.52851 10.4714L8.66659 9.60948V14C8.66659 14.3682 8.36811 14.6667 7.99992 14.6667C7.63173 14.6667 7.33325 14.3682 7.33325 14V9.60948L6.47132 10.4714C6.21097 10.7318 5.78886 10.7318 5.52851 10.4714C5.26816 10.2111 5.26816 9.78895 5.52851 9.5286L7.52851 7.5286Z" fill="currentColor"/>
</g>
<defs>
<clipPath id="clip0_9774_5544">
<rect width="16" height="16" fill="currentColor"/>
</clipPath>
</defs>
</svg>
